<svg width="240" height="340" viewBox="0 0 240 340" fill="none" xmlns="http://www.w3.org/2000/svg">
<g clip-path="url(#clip0_63_34)">
<path d="M224 0H16C7.16344 0 0 7.16344 0 16V324C0 332.837 7.16344 340 16 340H224C232.837 340 240 332.837 240 324V16C240 7.16344 232.837 0 224 0Z" fill="#DDCAC3"/>
<path d="M32.2955 224V200.727H47.2614V204.261H36.5114V209.716H41C42.7803 209.716 44.3068 210.008 45.5795 210.591C46.8598 211.167 47.8409 211.981 48.5227 213.034C49.2045 214.087 49.5455 215.326 49.5455 216.75C49.5455 218.182 49.2045 219.443 48.5227 220.534C47.8409 221.617 46.8598 222.466 45.5795 223.08C44.3068 223.693 42.7803 224 41 224H32.2955ZM36.5114 220.545H41C41.9394 220.545 42.7348 220.367 43.3864 220.011C44.0379 219.655 44.5303 219.186 44.8636 218.602C45.2045 218.019 45.375 217.386 45.375 216.705C45.375 215.72 44.9962 214.883 44.2386 214.193C43.4886 213.496 42.4091 213.148 41 213.148H36.5114V220.545ZM57.017 218.432L64.0057 206.545H68.233V224H64.2557V212.102L57.2898 224H53.0511V206.545H57.017V218.432ZM80.071 224.341C78.3665 224.341 76.8892 223.966 75.6392 223.216C74.3892 222.466 73.4195 221.417 72.7301 220.068C72.0483 218.72 71.7074 217.144 71.7074 215.341C71.7074 213.538 72.0483 211.958 72.7301 210.602C73.4195 209.246 74.3892 208.193 75.6392 207.443C76.8892 206.693 78.3665 206.318 80.071 206.318C81.7756 206.318 83.2528 206.693 84.5028 207.443C85.7528 208.193 86.7188 209.246 87.4006 210.602C88.09 211.958 88.4347 213.538 88.4347 215.341C88.4347 217.144 88.09 218.72 87.4006 220.068C86.7188 221.417 85.7528 222.466 84.5028 223.216C83.2528 223.966 81.7756 224.341 80.071 224.341ZM80.0938 221.045C81.018 221.045 81.7907 220.792 82.4119 220.284C83.0331 219.769 83.4953 219.08 83.7983 218.216C84.1089 217.352 84.2642 216.39 84.2642 215.33C84.2642 214.261 84.1089 213.295 83.7983 212.432C83.4953 211.561 83.0331 210.867 82.4119 210.352C81.7907 209.837 81.018 209.58 80.0938 209.58C79.1468 209.58 78.3589 209.837 77.7301 210.352C77.1089 210.867 76.643 211.561 76.3324 212.432C76.0294 213.295 75.8778 214.261 75.8778 215.33C75.8778 216.39 76.0294 217.352 76.3324 218.216C76.643 219.08 77.1089 219.769 77.7301 220.284C78.3589 220.792 79.1468 221.045 80.0938 221.045ZM103.472 206.545V209.92H95.9489V224H91.9261V206.545H103.472ZM106.77 230.545V206.545H110.815V209.432H111.054C111.266 209.008 111.565 208.557 111.952 208.08C112.338 207.595 112.861 207.182 113.52 206.841C114.179 206.492 115.02 206.318 116.043 206.318C117.391 206.318 118.607 206.663 119.69 207.352C120.781 208.034 121.645 209.045 122.281 210.386C122.925 211.72 123.247 213.356 123.247 215.295C123.247 217.212 122.933 218.841 122.304 220.182C121.675 221.523 120.819 222.545 119.736 223.25C118.652 223.955 117.425 224.307 116.054 224.307C115.054 224.307 114.224 224.14 113.565 223.807C112.906 223.473 112.376 223.072 111.974 222.602C111.58 222.125 111.274 221.674 111.054 221.25H110.884V230.545H106.77ZM110.804 215.273C110.804 216.402 110.963 217.39 111.281 218.239C111.607 219.087 112.073 219.75 112.679 220.227C113.293 220.697 114.035 220.932 114.906 220.932C115.815 220.932 116.577 220.689 117.19 220.205C117.804 219.712 118.266 219.042 118.577 218.193C118.895 217.337 119.054 216.364 119.054 215.273C119.054 214.189 118.899 213.227 118.588 212.386C118.277 211.545 117.815 210.886 117.202 210.409C116.588 209.932 115.823 209.693 114.906 209.693C114.027 209.693 113.281 209.924 112.668 210.386C112.054 210.848 111.588 211.496 111.27 212.33C110.959 213.163 110.804 214.144 110.804 215.273ZM131.793 224.352C130.687 224.352 129.69 224.155 128.804 223.761C127.925 223.36 127.228 222.769 126.713 221.989C126.205 221.208 125.952 220.246 125.952 219.102C125.952 218.117 126.134 217.303 126.497 216.659C126.861 216.015 127.357 215.5 127.986 215.114C128.615 214.727 129.323 214.436 130.111 214.239C130.906 214.034 131.728 213.886 132.577 213.795C133.599 213.689 134.429 213.595 135.065 213.511C135.702 213.42 136.164 213.284 136.452 213.102C136.747 212.913 136.895 212.621 136.895 212.227V212.159C136.895 211.303 136.641 210.64 136.134 210.17C135.626 209.701 134.895 209.466 133.94 209.466C132.933 209.466 132.134 209.686 131.543 210.125C130.959 210.564 130.565 211.083 130.361 211.682L126.52 211.136C126.823 210.076 127.323 209.189 128.02 208.477C128.717 207.758 129.569 207.22 130.577 206.864C131.584 206.5 132.698 206.318 133.918 206.318C134.759 206.318 135.596 206.417 136.429 206.614C137.262 206.811 138.024 207.136 138.713 207.591C139.402 208.038 139.955 208.648 140.372 209.42C140.796 210.193 141.009 211.159 141.009 212.318V224H137.054V221.602H136.918C136.668 222.087 136.315 222.542 135.861 222.966C135.414 223.383 134.849 223.72 134.168 223.977C133.493 224.227 132.702 224.352 131.793 224.352ZM132.861 221.33C133.687 221.33 134.402 221.167 135.009 220.841C135.615 220.508 136.08 220.068 136.406 219.523C136.74 218.977 136.906 218.383 136.906 217.739V215.682C136.777 215.788 136.558 215.886 136.247 215.977C135.944 216.068 135.603 216.148 135.224 216.216C134.846 216.284 134.471 216.345 134.099 216.398C133.728 216.451 133.406 216.496 133.134 216.534C132.52 216.617 131.971 216.754 131.486 216.943C131.001 217.133 130.618 217.398 130.338 217.739C130.058 218.072 129.918 218.504 129.918 219.034C129.918 219.792 130.194 220.364 130.747 220.75C131.3 221.136 132.005 221.33 132.861 221.33ZM153.065 229.932V200.727H157.19V229.932H153.065ZM153.065 224.341C151.785 224.341 150.615 224.125 149.554 223.693C148.493 223.261 147.577 222.648 146.804 221.852C146.039 221.057 145.444 220.11 145.02 219.011C144.603 217.905 144.395 216.682 144.395 215.341C144.395 214 144.603 212.777 145.02 211.67C145.444 210.564 146.039 209.614 146.804 208.818C147.577 208.015 148.493 207.398 149.554 206.966C150.615 206.534 151.785 206.318 153.065 206.318H153.94V224.341H153.065ZM153.065 221.023H153.577V209.636H153.065C152.338 209.636 151.694 209.788 151.134 210.091C150.58 210.386 150.115 210.799 149.736 211.33C149.365 211.852 149.08 212.458 148.884 213.148C148.694 213.83 148.599 214.561 148.599 215.341C148.599 216.379 148.77 217.33 149.111 218.193C149.452 219.049 149.952 219.735 150.611 220.25C151.277 220.765 152.096 221.023 153.065 221.023ZM157.19 224.341H156.315V206.318H157.19C158.471 206.318 159.641 206.534 160.702 206.966C161.762 207.398 162.675 208.015 163.44 208.818C164.213 209.614 164.808 210.564 165.224 211.67C165.649 212.777 165.861 214 165.861 215.341C165.861 216.682 165.649 217.905 165.224 219.011C164.808 220.11 164.213 221.057 163.44 221.852C162.675 222.648 161.762 223.261 160.702 223.693C159.641 224.125 158.471 224.341 157.19 224.341ZM157.19 221.023C157.925 221.023 158.569 220.875 159.122 220.58C159.675 220.284 160.137 219.875 160.509 219.352C160.887 218.83 161.171 218.227 161.361 217.545C161.55 216.856 161.645 216.121 161.645 215.341C161.645 214.303 161.478 213.352 161.145 212.489C160.812 211.625 160.312 210.936 159.645 210.42C158.986 209.898 158.168 209.636 157.19 209.636H156.679V221.023H157.19ZM173.298 218.432L180.287 206.545H184.514V224H180.537V212.102L173.571 224H169.332V206.545H173.298V218.432ZM199.057 224V209.886H195.33C194.383 209.886 193.655 210.106 193.148 210.545C192.64 210.985 192.39 211.53 192.398 212.182C192.39 212.833 192.629 213.371 193.114 213.795C193.598 214.22 194.292 214.432 195.193 214.432H200.352V217.432H195.193C193.799 217.432 192.595 217.212 191.58 216.773C190.564 216.333 189.784 215.712 189.239 214.909C188.693 214.106 188.42 213.167 188.42 212.091C188.42 210.97 188.697 209.996 189.25 209.17C189.811 208.337 190.606 207.693 191.636 207.239C192.674 206.777 193.905 206.545 195.33 206.545H202.909V224H199.057ZM187.784 224L192.659 215.045H196.716L191.83 224H187.784Z" fill="#581F32"/>
<path d="M99.5 132C102.333 129.833 105.5 128.125 109 126.875C112.5 125.625 116.167 125 120 125C123.833 125 127.5 125.625 131 126.875C134.5 128.125 137.667 129.833 140.5 132C142.444 129.722 143.958 127.139 145.042 124.25C146.125 121.361 146.667 118.278 146.667 115C146.667 107.611 144.069 101.319 138.875 96.125C133.681 90.9306 127.389 88.3333 120 88.3333C112.611 88.3333 106.319 90.9306 101.125 96.125C95.9306 101.319 93.3333 107.611 93.3333 115C93.3333 118.278 93.875 121.361 94.9583 124.25C96.0417 127.139 97.5556 129.722 99.5 132ZM120 118.333C116.722 118.333 113.958 117.208 111.708 114.958C109.458 112.708 108.333 109.944 108.333 106.667C108.333 103.389 109.458 100.625 111.708 98.375C113.958 96.125 116.722 95 120 95C123.278 95 126.042 96.125 128.292 98.375C130.542 100.625 131.667 103.389 131.667 106.667C131.667 109.944 130.542 112.708 128.292 114.958C126.042 117.208 123.278 118.333 120 118.333ZM120 148.333C115.389 148.333 111.056 147.458 107 145.708C102.944 143.958 99.4167 141.583 96.4167 138.583C93.4167 135.583 91.0417 132.056 89.2917 128C87.5417 123.944 86.6667 119.611 86.6667 115C86.6667 110.389 87.5417 106.056 89.2917 102C91.0417 97.9444 93.4167 94.4167 96.4167 91.4167C99.4167 88.4167 102.944 86.0417 107 84.2917C111.056 82.5417 115.389 81.6667 120 81.6667C124.611 81.6667 128.944 82.5417 133 84.2917C137.056 86.0417 140.583 88.4167 143.583 91.4167C146.583 94.4167 148.958 97.9444 150.708 102C152.458 106.056 153.333 110.389 153.333 115C153.333 119.611 152.458 123.944 150.708 128C148.958 132.056 146.583 135.583 143.583 138.583C140.583 141.583 137.056 143.958 133 145.708C128.944 147.458 124.611 148.333 120 148.333ZM120 141.667C122.944 141.667 125.722 141.236 128.333 140.375C130.944 139.514 133.333 138.278 135.5 136.667C133.333 135.056 130.944 133.819 128.333 132.958C125.722 132.097 122.944 131.667 120 131.667C117.056 131.667 114.278 132.097 111.667 132.958C109.056 133.819 106.667 135.056 104.5 136.667C106.667 138.278 109.056 139.514 111.667 140.375C114.278 141.236 117.056 141.667 120 141.667ZM120 111.667C121.444 111.667 122.639 111.194 123.583 110.25C124.528 109.306 125 108.111 125 106.667C125 105.222 124.528 104.028 123.583 103.083C122.639 102.139 121.444 101.667 120 101.667C118.556 101.667 117.361 102.139 116.417 103.083C115.472 104.028 115 105.222 115 106.667C115 108.111 115.472 109.306 116.417 110.25C117.361 111.194 118.556 111.667 120 111.667Z" fill="#581F32"/>
</g>
<defs>
<clipPath id="clip0_63_34">
<rect width="240" height="340" fill="white"/>
</clipPath>
</defs>
</svg>
