<svg width="240" height="340" viewBox="0 0 240 340" fill="none" xmlns="http://www.w3.org/2000/svg">
<rect width="240" height="340" rx="16" fill="#58BBDE"/>
<g filter="url(#filter0_d_23_4)">
<path d="M38.5994 221V186.091H61.0483V191.392H44.9233V199.574H51.6562C54.3267 199.574 56.6165 200.011 58.5256 200.886C60.446 201.75 61.9176 202.972 62.9403 204.551C63.9631 206.131 64.4744 207.989 64.4744 210.125C64.4744 212.273 63.9631 214.165 62.9403 215.801C61.9176 217.426 60.446 218.699 58.5256 219.619C56.6165 220.54 54.3267 221 51.6562 221H38.5994ZM44.9233 215.818H51.6562C53.0653 215.818 54.2585 215.551 55.2358 215.017C56.2131 214.483 56.9517 213.778 57.4517 212.903C57.9631 212.028 58.2188 211.08 58.2188 210.057C58.2188 208.58 57.6506 207.324 56.5142 206.29C55.3892 205.244 53.7699 204.722 51.6562 204.722H44.9233V215.818ZM75.6818 212.648L86.1648 194.818H92.5057V221H86.5398V203.153L76.0909 221H69.733V194.818H75.6818V212.648ZM97.3935 213.824H103.513C103.57 214.801 104.007 215.557 104.825 216.091C105.643 216.625 106.706 216.892 108.013 216.892C109.342 216.892 110.462 216.602 111.371 216.023C112.291 215.432 112.751 214.54 112.751 213.347C112.751 212.642 112.575 212.023 112.223 211.489C111.871 210.943 111.376 210.523 110.74 210.227C110.104 209.932 109.354 209.784 108.49 209.784H104.484V205.403H108.49C109.774 205.403 110.746 205.108 111.405 204.517C112.075 203.926 112.411 203.182 112.411 202.284C112.411 201.318 112.058 200.534 111.354 199.932C110.661 199.33 109.7 199.028 108.473 199.028C107.246 199.028 106.223 199.307 105.405 199.864C104.598 200.42 104.178 201.136 104.143 202.011H98.0582C98.081 200.489 98.5355 199.165 99.4219 198.04C100.32 196.915 101.524 196.04 103.036 195.415C104.558 194.79 106.274 194.477 108.183 194.477C110.229 194.477 111.996 194.784 113.484 195.398C114.973 196.011 116.121 196.869 116.928 197.972C117.734 199.062 118.138 200.347 118.138 201.824C118.138 203.244 117.695 204.42 116.808 205.352C115.922 206.273 114.729 206.932 113.229 207.33V207.602C114.263 207.659 115.195 207.955 116.024 208.489C116.854 209.011 117.513 209.722 118.001 210.619C118.49 211.517 118.734 212.557 118.734 213.739C118.734 215.341 118.274 216.727 117.354 217.898C116.433 219.057 115.166 219.949 113.553 220.574C111.95 221.199 110.115 221.511 108.047 221.511C106.036 221.511 104.234 221.21 102.643 220.608C101.064 219.994 99.8082 219.114 98.8764 217.966C97.9446 216.818 97.4503 215.437 97.3935 213.824ZM141.575 205.352V210.415H127.632V205.352H141.575ZM129.541 194.818V221H123.592V194.818H129.541ZM145.615 194.818V221H139.683V194.818H145.615ZM163.449 221.511C160.824 221.511 158.557 220.966 156.648 219.875C154.75 218.773 153.29 217.216 152.267 215.205C151.244 213.182 150.733 210.801 150.733 208.062C150.733 205.369 151.244 203.006 152.267 200.972C153.301 198.926 154.744 197.335 156.597 196.199C158.449 195.051 160.625 194.477 163.125 194.477C164.739 194.477 166.261 194.739 167.693 195.261C169.136 195.773 170.409 196.568 171.511 197.648C172.625 198.727 173.5 200.102 174.136 201.773C174.773 203.432 175.091 205.409 175.091 207.705V209.597H153.631V205.438H169.176C169.165 204.256 168.909 203.205 168.409 202.284C167.909 201.352 167.21 200.619 166.312 200.085C165.426 199.551 164.392 199.284 163.21 199.284C161.949 199.284 160.841 199.591 159.886 200.205C158.932 200.807 158.188 201.602 157.653 202.591C157.131 203.568 156.864 204.642 156.852 205.812V209.443C156.852 210.966 157.131 212.273 157.688 213.364C158.244 214.443 159.023 215.273 160.023 215.852C161.023 216.42 162.193 216.705 163.534 216.705C164.432 216.705 165.244 216.58 165.972 216.33C166.699 216.068 167.33 215.688 167.864 215.188C168.398 214.688 168.801 214.068 169.074 213.33L174.835 213.977C174.472 215.5 173.778 216.83 172.756 217.966C171.744 219.091 170.449 219.966 168.869 220.591C167.29 221.205 165.483 221.511 163.449 221.511ZM191.732 221.511C189.118 221.511 186.874 220.938 184.999 219.79C183.135 218.642 181.697 217.057 180.686 215.034C179.686 213 179.186 210.659 179.186 208.011C179.186 205.352 179.697 203.006 180.72 200.972C181.743 198.926 183.186 197.335 185.05 196.199C186.925 195.051 189.141 194.477 191.697 194.477C193.822 194.477 195.703 194.869 197.339 195.653C198.987 196.426 200.3 197.523 201.277 198.943C202.254 200.352 202.811 202 202.947 203.886H197.05C196.811 202.625 196.243 201.574 195.345 200.733C194.459 199.881 193.271 199.455 191.783 199.455C190.521 199.455 189.413 199.795 188.459 200.477C187.504 201.148 186.76 202.114 186.226 203.375C185.703 204.636 185.442 206.148 185.442 207.909C185.442 209.693 185.703 211.227 186.226 212.511C186.749 213.784 187.482 214.767 188.425 215.46C189.379 216.142 190.499 216.483 191.783 216.483C192.692 216.483 193.504 216.312 194.22 215.972C194.947 215.619 195.555 215.114 196.044 214.455C196.533 213.795 196.868 212.994 197.05 212.051H202.947C202.8 213.903 202.254 215.545 201.311 216.977C200.368 218.398 199.084 219.511 197.459 220.318C195.834 221.114 193.925 221.511 191.732 221.511Z" fill="#0A4B78"/>
</g>
<path d="M120.5 96.875C120.5 93.5598 119.183 90.3804 116.839 88.0362C114.495 85.692 111.315 84.375 108 84.375H89.25V131.25H111.125C113.611 131.25 115.996 132.238 117.754 133.996C119.512 135.754 120.5 138.139 120.5 140.625M120.5 96.875V140.625M120.5 96.875C120.5 93.5598 121.817 90.3804 124.161 88.0362C126.505 85.692 129.685 84.375 133 84.375H151.75V131.25H129.875C127.389 131.25 125.004 132.238 123.246 133.996C121.488 135.754 120.5 138.139 120.5 140.625" stroke="#003664" stroke-width="3.5" stroke-linecap="round" stroke-linejoin="round"/>
<defs>
<filter id="filter0_d_23_4" x="34.5994" y="186.091" width="172.348" height="43.4205" filterUnits="userSpaceOnUse" color-interpolation-filters="sRGB">
<feFlood flood-opacity="0" result="BackgroundImageFix"/>
<feColorMatrix in="SourceAlpha" type="matrix" values="0 0 0 0 0 0 0 0 0 0 0 0 0 0 0 0 0 0 127 0" result="hardAlpha"/>
<feOffset dy="4"/>
<feGaussianBlur stdDeviation="2"/>
<feComposite in2="hardAlpha" operator="out"/>
<feColorMatrix type="matrix" values="0 0 0 0 0 0 0 0 0 0 0 0 0 0 0 0 0 0 0.15 0"/>
<feBlend mode="normal" in2="BackgroundImageFix" result="effect1_dropShadow_23_4"/>
<feBlend mode="normal" in="SourceGraphic" in2="effect1_dropShadow_23_4" result="shape"/>
</filter>
</defs>
</svg>
