<svg width="240" height="340" viewBox="0 0 240 340" fill="none" xmlns="http://www.w3.org/2000/svg">
<g clip-path="url(#clip0_63_34)">
<path d="M224 0H16C7.16344 0 0 7.16344 0 16V324C0 332.837 7.16344 340 16 340H224C232.837 340 240 332.837 240 324V16C240 7.16344 232.837 0 224 0Z" fill="#C9D46C"/>
<g filter="url(#filter0_d_63_34)">
<path d="M42.4379 197.148H48.3185C50.5913 197.148 52.6083 197.635 54.3697 198.611C56.131 199.586 57.5136 200.959 58.5174 202.73C59.5212 204.491 60.0231 206.556 60.0231 208.923C60.0231 211.234 59.5212 213.256 58.5174 214.989C57.5136 216.722 56.131 218.071 54.3697 219.037C52.6083 219.993 50.5913 220.472 48.3185 220.472H42.4379C40.1557 220.472 38.1291 219.998 36.3583 219.051C34.5969 218.095 33.2144 216.75 32.2106 215.017C31.2068 213.284 30.7049 211.258 30.7049 208.938C30.7049 206.57 31.2115 204.506 32.2248 202.744C33.238 200.973 34.6254 199.6 36.3867 198.625C38.1576 197.64 40.1746 197.148 42.4379 197.148ZM42.4379 201.608C41.0553 201.608 39.8574 201.892 38.8441 202.46C37.8403 203.019 37.0638 203.843 36.5146 204.932C35.9653 206.021 35.6907 207.356 35.6907 208.938C35.6907 210.453 35.9653 211.736 36.5146 212.787C37.0733 213.838 37.8593 214.638 38.8725 215.188C39.8858 215.737 41.0742 216.011 42.4379 216.011H48.3327C49.7058 216.011 50.8896 215.737 51.8839 215.188C52.8877 214.629 53.6594 213.824 54.1992 212.773C54.7485 211.712 55.0231 210.429 55.0231 208.923C55.0231 207.361 54.7485 206.035 54.1992 204.946C53.6594 203.857 52.8877 203.028 51.8839 202.46C50.8896 201.892 49.7058 201.608 48.3327 201.608H42.4379ZM47.9208 193.398V224.193H42.8498V193.398H47.9208ZM69.7674 216.04L78.5032 201.182H83.7873V223H78.8157V208.128L70.1083 223H64.81V201.182H69.7674V216.04ZM104.054 209.96V214.179H92.4343V209.96H104.054ZM94.0252 201.182V223H89.0678V201.182H94.0252ZM107.42 201.182V223H102.477V201.182H107.42ZM118.901 223.44C117.518 223.44 116.273 223.194 115.165 222.702C114.067 222.2 113.195 221.461 112.551 220.486C111.917 219.51 111.6 218.308 111.6 216.878C111.6 215.647 111.827 214.629 112.282 213.824C112.736 213.019 113.356 212.375 114.142 211.892C114.928 211.409 115.814 211.045 116.799 210.798C117.793 210.543 118.82 210.358 119.881 210.244C121.159 210.112 122.196 209.993 122.992 209.889C123.787 209.776 124.365 209.605 124.725 209.378C125.094 209.141 125.279 208.777 125.279 208.284V208.199C125.279 207.129 124.962 206.3 124.327 205.713C123.693 205.126 122.779 204.832 121.586 204.832C120.326 204.832 119.327 205.107 118.588 205.656C117.859 206.205 117.367 206.854 117.111 207.602L112.31 206.92C112.689 205.595 113.314 204.487 114.185 203.597C115.056 202.697 116.122 202.025 117.381 201.58C118.641 201.125 120.033 200.898 121.557 200.898C122.608 200.898 123.655 201.021 124.696 201.267C125.738 201.513 126.69 201.92 127.551 202.489C128.413 203.047 129.105 203.81 129.625 204.776C130.156 205.741 130.421 206.949 130.421 208.398V223H125.478V220.003H125.307C124.995 220.609 124.554 221.177 123.986 221.707C123.427 222.228 122.722 222.65 121.87 222.972C121.027 223.284 120.037 223.44 118.901 223.44ZM120.236 219.662C121.268 219.662 122.163 219.458 122.921 219.051C123.678 218.634 124.261 218.085 124.668 217.403C125.085 216.722 125.293 215.978 125.293 215.173V212.602C125.132 212.735 124.857 212.858 124.469 212.972C124.09 213.085 123.664 213.185 123.191 213.27C122.717 213.355 122.248 213.431 121.784 213.497C121.32 213.563 120.918 213.62 120.577 213.668C119.81 213.772 119.123 213.942 118.517 214.179C117.911 214.416 117.433 214.747 117.083 215.173C116.732 215.59 116.557 216.13 116.557 216.793C116.557 217.74 116.903 218.455 117.594 218.938C118.285 219.42 119.166 219.662 120.236 219.662ZM150.577 209.96V214.179H138.958V209.96H150.577ZM140.549 201.182V223H135.591V201.182H140.549ZM153.944 201.182V223H149V201.182H153.944ZM168.663 223.426C166.485 223.426 164.615 222.948 163.052 221.991C161.499 221.035 160.301 219.714 159.458 218.028C158.625 216.333 158.208 214.383 158.208 212.176C158.208 209.96 158.635 208.005 159.487 206.31C160.339 204.605 161.542 203.279 163.095 202.332C164.657 201.376 166.504 200.898 168.635 200.898C170.405 200.898 171.973 201.224 173.336 201.878C174.709 202.522 175.803 203.436 176.618 204.619C177.432 205.794 177.896 207.167 178.01 208.739H173.095C172.896 207.687 172.422 206.812 171.674 206.111C170.936 205.401 169.946 205.045 168.706 205.045C167.654 205.045 166.731 205.33 165.936 205.898C165.14 206.456 164.52 207.261 164.075 208.312C163.639 209.364 163.422 210.623 163.422 212.091C163.422 213.578 163.639 214.856 164.075 215.926C164.511 216.987 165.121 217.806 165.907 218.384C166.703 218.952 167.636 219.236 168.706 219.236C169.463 219.236 170.14 219.094 170.737 218.81C171.343 218.516 171.85 218.095 172.257 217.545C172.664 216.996 172.943 216.329 173.095 215.543H178.01C177.886 217.086 177.432 218.455 176.646 219.648C175.86 220.831 174.79 221.759 173.436 222.432C172.082 223.095 170.491 223.426 168.663 223.426ZM185.712 208.284H192.147C194.931 208.284 197.085 208.961 198.61 210.315C200.134 211.67 200.901 213.445 200.911 215.642C200.901 217.072 200.551 218.341 199.86 219.449C199.178 220.557 198.184 221.428 196.877 222.062C195.579 222.688 194.003 223 192.147 223H182.232V201.182H187.189V218.781H192.147C193.264 218.781 194.183 218.497 194.902 217.929C195.622 217.351 195.982 216.613 195.982 215.713C195.982 214.766 195.622 213.994 194.902 213.398C194.183 212.801 193.264 212.503 192.147 212.503H185.712V208.284ZM203.624 223V201.182H208.766V223H203.624Z" fill="#338309"/>
</g>
<path d="M116.85 144V135.759C113.544 134.991 110.689 133.522 108.287 131.35C105.886 129.178 104.123 126.112 103 122.15L109.925 119.275C110.861 122.341 112.249 124.674 114.09 126.271C115.93 127.868 118.347 128.666 121.342 128.666C123.9 128.666 126.068 128.076 127.846 126.894C129.624 125.712 130.514 123.875 130.514 121.384C130.514 119.147 129.827 117.374 128.454 116.065C127.082 114.755 123.9 113.269 118.909 111.608C113.544 109.883 109.863 107.823 107.866 105.427C105.869 103.031 104.871 100.108 104.871 96.6584C104.871 92.5056 106.181 89.2791 108.802 86.9791C111.423 84.6791 114.105 83.3694 116.85 83.05V75H124.337V83.05C127.456 83.5612 130.03 84.7271 132.058 86.5479C134.086 88.3687 135.567 90.5889 136.502 93.2084L129.577 96.275C128.829 94.2306 127.768 92.6972 126.395 91.675C125.023 90.6528 123.151 90.1416 120.78 90.1416C118.036 90.1416 115.946 90.7646 114.51 92.0104C113.076 93.2562 112.358 94.8056 112.358 96.6584C112.358 98.7666 113.294 100.428 115.165 101.642C117.038 102.856 120.282 104.133 124.899 105.475C129.203 106.753 132.463 108.781 134.678 111.56C136.893 114.34 138 117.55 138 121.191C138 125.728 136.69 129.178 134.069 131.541C131.449 133.906 128.205 135.375 124.337 135.95V144H116.85Z" fill="#338309"/>
</g>
<defs>
<filter id="filter0_d_63_34" x="26.7049" y="193.398" width="186.061" height="38.795" filterUnits="userSpaceOnUse" color-interpolation-filters="sRGB">
<feFlood flood-opacity="0" result="BackgroundImageFix"/>
<feColorMatrix in="SourceAlpha" type="matrix" values="0 0 0 0 0 0 0 0 0 0 0 0 0 0 0 0 0 0 127 0" result="hardAlpha"/>
<feOffset dy="4"/>
<feGaussianBlur stdDeviation="2"/>
<feComposite in2="hardAlpha" operator="out"/>
<feColorMatrix type="matrix" values="0 0 0 0 0 0 0 0 0 0 0 0 0 0 0 0 0 0 0.15 0"/>
<feBlend mode="normal" in2="BackgroundImageFix" result="effect1_dropShadow_63_34"/>
<feBlend mode="normal" in="SourceGraphic" in2="effect1_dropShadow_63_34" result="shape"/>
</filter>
<clipPath id="clip0_63_34">
<rect width="240" height="340" fill="white"/>
</clipPath>
</defs>
</svg>
