<svg width="240" height="340" viewBox="0 0 240 340" fill="none" xmlns="http://www.w3.org/2000/svg">
<rect width="240" height="340" rx="16" fill="#FFA570"/>
<g filter="url(#filter0_d_23_4)">
<path d="M92.358 201V177.727H96.5739V187.58H107.358V177.727H111.585V201H107.358V191.114H96.5739V201H92.358ZM123.716 201.341C121.966 201.341 120.455 200.977 119.182 200.25C117.917 199.515 116.943 198.477 116.261 197.136C115.58 195.788 115.239 194.201 115.239 192.375C115.239 190.58 115.58 189.004 116.261 187.648C116.951 186.284 117.913 185.223 119.148 184.466C120.383 183.701 121.833 183.318 123.5 183.318C124.576 183.318 125.591 183.492 126.545 183.841C127.508 184.182 128.356 184.712 129.091 185.432C129.833 186.152 130.417 187.068 130.841 188.182C131.265 189.288 131.477 190.606 131.477 192.136V193.398H117.17V190.625H127.534C127.527 189.837 127.356 189.136 127.023 188.523C126.689 187.902 126.223 187.413 125.625 187.057C125.034 186.701 124.345 186.523 123.557 186.523C122.716 186.523 121.977 186.727 121.341 187.136C120.705 187.538 120.208 188.068 119.852 188.727C119.504 189.379 119.326 190.095 119.318 190.875V193.295C119.318 194.311 119.504 195.182 119.875 195.909C120.246 196.629 120.765 197.182 121.432 197.568C122.098 197.947 122.879 198.136 123.773 198.136C124.371 198.136 124.913 198.053 125.398 197.886C125.883 197.712 126.303 197.458 126.659 197.125C127.015 196.792 127.284 196.379 127.466 195.886L131.307 196.318C131.064 197.333 130.602 198.22 129.92 198.977C129.246 199.727 128.383 200.311 127.33 200.727C126.277 201.136 125.072 201.341 123.716 201.341ZM133.503 186.92V183.545H148.776V186.92H143.128V201H139.151V186.92H133.503ZM58.7273 240.341C57.0227 240.341 55.5455 239.966 54.2955 239.216C53.0455 238.466 52.0758 237.417 51.3864 236.068C50.7045 234.72 50.3636 233.144 50.3636 231.341C50.3636 229.538 50.7045 227.958 51.3864 226.602C52.0758 225.246 53.0455 224.193 54.2955 223.443C55.5455 222.693 57.0227 222.318 58.7273 222.318C60.4318 222.318 61.9091 222.693 63.1591 223.443C64.4091 224.193 65.375 225.246 66.0568 226.602C66.7462 227.958 67.0909 229.538 67.0909 231.341C67.0909 233.144 66.7462 234.72 66.0568 236.068C65.375 237.417 64.4091 238.466 63.1591 239.216C61.9091 239.966 60.4318 240.341 58.7273 240.341ZM58.75 237.045C59.6742 237.045 60.447 236.792 61.0682 236.284C61.6894 235.769 62.1515 235.08 62.4545 234.216C62.7652 233.352 62.9205 232.39 62.9205 231.33C62.9205 230.261 62.7652 229.295 62.4545 228.432C62.1515 227.561 61.6894 226.867 61.0682 226.352C60.447 225.837 59.6742 225.58 58.75 225.58C57.803 225.58 57.0152 225.837 56.3864 226.352C55.7652 226.867 55.2992 227.561 54.9886 228.432C54.6856 229.295 54.5341 230.261 54.5341 231.33C54.5341 232.39 54.6856 233.352 54.9886 234.216C55.2992 235.08 55.7652 235.769 56.3864 236.284C57.0152 236.792 57.803 237.045 58.75 237.045ZM84.571 216.091L86.0028 218.75C85.4953 219.189 84.9271 219.508 84.2983 219.705C83.6695 219.902 82.9309 220.03 82.0824 220.091C81.2415 220.144 80.2415 220.182 79.0824 220.205C77.7794 220.235 76.715 220.481 75.8892 220.943C75.0634 221.405 74.4309 222.106 73.9915 223.045C73.5521 223.977 73.2642 225.167 73.1278 226.614H73.321C73.8665 225.545 74.6316 224.731 75.6165 224.17C76.6013 223.61 77.7566 223.33 79.0824 223.33C80.5294 223.33 81.8059 223.655 82.9119 224.307C84.0256 224.951 84.893 225.886 85.5142 227.114C86.143 228.341 86.4574 229.826 86.4574 231.568C86.4574 233.364 86.1203 234.92 85.446 236.239C84.7718 237.549 83.8134 238.561 82.571 239.273C81.3362 239.985 79.8703 240.341 78.1733 240.341C76.4839 240.341 75.0142 239.973 73.7642 239.239C72.5218 238.496 71.5597 237.402 70.8778 235.955C70.2036 234.5 69.8665 232.708 69.8665 230.58V229.011C69.8665 224.905 70.6316 221.841 72.1619 219.818C73.6922 217.795 75.9612 216.765 78.9688 216.727C79.8627 216.712 80.6619 216.708 81.3665 216.716C82.0786 216.723 82.6998 216.689 83.2301 216.614C83.7604 216.538 84.2074 216.364 84.571 216.091ZM78.196 237.045C79.0369 237.045 79.7642 236.83 80.3778 236.398C80.9915 235.958 81.4612 235.337 81.7869 234.534C82.1203 233.731 82.2869 232.78 82.2869 231.682C82.2869 230.598 82.1203 229.678 81.7869 228.92C81.4536 228.155 80.9801 227.572 80.3665 227.17C79.7528 226.769 79.0218 226.568 78.1733 226.568C77.5369 226.568 76.965 226.682 76.4574 226.909C75.9498 227.136 75.518 227.47 75.1619 227.909C74.8059 228.348 74.5331 228.883 74.3438 229.511C74.1544 230.14 74.0521 230.864 74.0369 231.682C74.0369 233.326 74.4081 234.633 75.1506 235.602C75.893 236.564 76.9081 237.045 78.196 237.045ZM88.7528 240L88.7301 236.614H89.3324C89.7869 236.614 90.1695 236.511 90.4801 236.307C90.7907 236.102 91.0483 235.761 91.2528 235.284C91.4574 234.799 91.6165 234.148 91.7301 233.33C91.8438 232.511 91.9233 231.492 91.9688 230.273L92.2756 222.545H105.003V240H101.026V225.92H96.0142L95.7415 231.545C95.6733 233 95.5104 234.261 95.2528 235.33C95.0028 236.39 94.6468 237.265 94.1847 237.955C93.7301 238.644 93.1581 239.159 92.4688 239.5C91.7794 239.833 90.965 240 90.0256 240H88.7528ZM116.759 240.341C115.054 240.341 113.577 239.966 112.327 239.216C111.077 238.466 110.107 237.417 109.418 236.068C108.736 234.72 108.395 233.144 108.395 231.341C108.395 229.538 108.736 227.958 109.418 226.602C110.107 225.246 111.077 224.193 112.327 223.443C113.577 222.693 115.054 222.318 116.759 222.318C118.463 222.318 119.94 222.693 121.19 223.443C122.44 224.193 123.406 225.246 124.088 226.602C124.777 227.958 125.122 229.538 125.122 231.341C125.122 233.144 124.777 234.72 124.088 236.068C123.406 237.417 122.44 238.466 121.19 239.216C119.94 239.966 118.463 240.341 116.759 240.341ZM116.781 237.045C117.705 237.045 118.478 236.792 119.099 236.284C119.721 235.769 120.183 235.08 120.486 234.216C120.796 233.352 120.952 232.39 120.952 231.33C120.952 230.261 120.796 229.295 120.486 228.432C120.183 227.561 119.721 226.867 119.099 226.352C118.478 225.837 117.705 225.58 116.781 225.58C115.834 225.58 115.046 225.837 114.418 226.352C113.796 226.867 113.33 227.561 113.02 228.432C112.717 229.295 112.565 230.261 112.565 231.33C112.565 232.39 112.717 233.352 113.02 234.216C113.33 235.08 113.796 235.769 114.418 236.284C115.046 236.792 115.834 237.045 116.781 237.045ZM126.821 240L133.264 230.989L126.878 222.545H131.628L136.594 229.58H137.571V222.545H141.685V229.58H142.639L147.605 222.545H152.355L146.003 230.989L152.412 240H147.56L142.594 232.955H141.685V240H137.571V232.955H136.662L131.673 240H126.821ZM155.489 240V222.545H159.602V229.591H161.102L166.352 222.545H171.307L164.841 231.114L171.375 240H166.398L161.614 233.42H159.602V240H155.489ZM177.673 234.432L184.662 222.545H188.889V240H184.912V228.102L177.946 240H173.707V222.545H177.673V234.432Z" fill="#E83100"/>
</g>
<path d="M140 95L100 135M100 95L140 135" stroke="#E83100" stroke-width="6" stroke-linecap="round" stroke-linejoin="round"/>
<defs>
<filter id="filter0_d_23_4" x="46.3636" y="177.727" width="146.526" height="70.6136" filterUnits="userSpaceOnUse" color-interpolation-filters="sRGB">
<feFlood flood-opacity="0" result="BackgroundImageFix"/>
<feColorMatrix in="SourceAlpha" type="matrix" values="0 0 0 0 0 0 0 0 0 0 0 0 0 0 0 0 0 0 127 0" result="hardAlpha"/>
<feOffset dy="4"/>
<feGaussianBlur stdDeviation="2"/>
<feComposite in2="hardAlpha" operator="out"/>
<feColorMatrix type="matrix" values="0 0 0 0 0 0 0 0 0 0 0 0 0 0 0 0 0 0 0.15 0"/>
<feBlend mode="normal" in2="BackgroundImageFix" result="effect1_dropShadow_23_4"/>
<feBlend mode="normal" in="SourceGraphic" in2="effect1_dropShadow_23_4" result="shape"/>
</filter>
</defs>
</svg>
