<svg width="240" height="340" viewBox="0 0 240 340" fill="none" xmlns="http://www.w3.org/2000/svg">
<g clip-path="url(#clip0_63_34)">
<path d="M224 0H16C7.16344 0 0 7.16344 0 16V324C0 332.837 7.16344 340 16 340H224C232.837 340 240 332.837 240 324V16C240 7.16344 232.837 0 224 0Z" fill="#C1C5CE"/>
<path d="M53.8267 200.727H58.0085V216.591H58.2244L69.1676 200.727H72.9517V224H68.7358V208.148H68.5426L57.5653 224H53.8267V200.727ZM84.9773 224.341C83.2348 224.341 81.7386 223.958 80.4886 223.193C79.2462 222.428 78.2879 221.371 77.6136 220.023C76.947 218.667 76.6136 217.106 76.6136 215.341C76.6136 213.568 76.9545 212.004 77.6364 210.648C78.3182 209.284 79.2803 208.223 80.5227 207.466C81.7727 206.701 83.25 206.318 84.9545 206.318C86.3712 206.318 87.625 206.58 88.7159 207.102C89.8144 207.617 90.6894 208.348 91.3409 209.295C91.9924 210.235 92.3636 211.333 92.4545 212.591H88.5227C88.3636 211.75 87.9848 211.049 87.3864 210.489C86.7955 209.92 86.0038 209.636 85.0114 209.636C84.1705 209.636 83.4318 209.864 82.7955 210.318C82.1591 210.765 81.6629 211.409 81.3068 212.25C80.9583 213.091 80.7841 214.098 80.7841 215.273C80.7841 216.462 80.9583 217.485 81.3068 218.341C81.6553 219.189 82.1439 219.845 82.7727 220.307C83.4091 220.761 84.1553 220.989 85.0114 220.989C85.6174 220.989 86.1591 220.875 86.6364 220.648C87.1212 220.413 87.5265 220.076 87.8523 219.636C88.178 219.197 88.4015 218.663 88.5227 218.034H92.4545C92.3561 219.269 91.9924 220.364 91.3636 221.318C90.7348 222.265 89.8788 223.008 88.7955 223.545C87.7121 224.076 86.4394 224.341 84.9773 224.341ZM94.5653 209.92V206.545H109.838V209.92H104.19V224H100.213V209.92H94.5653ZM120.009 224.341C118.304 224.341 116.827 223.966 115.577 223.216C114.327 222.466 113.357 221.417 112.668 220.068C111.986 218.72 111.645 217.144 111.645 215.341C111.645 213.538 111.986 211.958 112.668 210.602C113.357 209.246 114.327 208.193 115.577 207.443C116.827 206.693 118.304 206.318 120.009 206.318C121.713 206.318 123.19 206.693 124.44 207.443C125.69 208.193 126.656 209.246 127.338 210.602C128.027 211.958 128.372 213.538 128.372 215.341C128.372 217.144 128.027 218.72 127.338 220.068C126.656 221.417 125.69 222.466 124.44 223.216C123.19 223.966 121.713 224.341 120.009 224.341ZM120.031 221.045C120.955 221.045 121.728 220.792 122.349 220.284C122.971 219.769 123.433 219.08 123.736 218.216C124.046 217.352 124.202 216.39 124.202 215.33C124.202 214.261 124.046 213.295 123.736 212.432C123.433 211.561 122.971 210.867 122.349 210.352C121.728 209.837 120.955 209.58 120.031 209.58C119.084 209.58 118.296 209.837 117.668 210.352C117.046 210.867 116.58 211.561 116.27 212.432C115.967 213.295 115.815 214.261 115.815 215.33C115.815 216.39 115.967 217.352 116.27 218.216C116.58 219.08 117.046 219.769 117.668 220.284C118.296 220.792 119.084 221.045 120.031 221.045ZM131.864 230.545V206.545H135.909V209.432H136.148C136.36 209.008 136.659 208.557 137.045 208.08C137.432 207.595 137.955 207.182 138.614 206.841C139.273 206.492 140.114 206.318 141.136 206.318C142.485 206.318 143.701 206.663 144.784 207.352C145.875 208.034 146.739 209.045 147.375 210.386C148.019 211.72 148.341 213.356 148.341 215.295C148.341 217.212 148.027 218.841 147.398 220.182C146.769 221.523 145.913 222.545 144.83 223.25C143.746 223.955 142.519 224.307 141.148 224.307C140.148 224.307 139.318 224.14 138.659 223.807C138 223.473 137.47 223.072 137.068 222.602C136.674 222.125 136.367 221.674 136.148 221.25H135.977V230.545H131.864ZM135.898 215.273C135.898 216.402 136.057 217.39 136.375 218.239C136.701 219.087 137.167 219.75 137.773 220.227C138.386 220.697 139.129 220.932 140 220.932C140.909 220.932 141.67 220.689 142.284 220.205C142.898 219.712 143.36 219.042 143.67 218.193C143.989 217.337 144.148 216.364 144.148 215.273C144.148 214.189 143.992 213.227 143.682 212.386C143.371 211.545 142.909 210.886 142.295 210.409C141.682 209.932 140.917 209.693 140 209.693C139.121 209.693 138.375 209.924 137.761 210.386C137.148 210.848 136.682 211.496 136.364 212.33C136.053 213.163 135.898 214.144 135.898 215.273ZM155.83 218.432L162.818 206.545H167.045V224H163.068V212.102L156.102 224H151.864V206.545H155.83V218.432ZM181.588 224V209.886H177.861C176.914 209.886 176.187 210.106 175.679 210.545C175.171 210.985 174.921 211.53 174.929 212.182C174.921 212.833 175.16 213.371 175.645 213.795C176.13 214.22 176.823 214.432 177.724 214.432H182.884V217.432H177.724C176.33 217.432 175.126 217.212 174.111 216.773C173.096 216.333 172.315 215.712 171.77 214.909C171.224 214.106 170.952 213.167 170.952 212.091C170.952 210.97 171.228 209.996 171.781 209.17C172.342 208.337 173.137 207.693 174.168 207.239C175.205 206.777 176.437 206.545 177.861 206.545H185.44V224H181.588ZM170.315 224L175.19 215.045H179.247L174.361 224H170.315Z" fill="#756855"/>
<path d="M100 148.333C97.2222 148.333 94.8611 147.361 92.9167 145.417C90.9722 143.472 90 141.111 90 138.333V91.6667C90 88.8889 90.9722 86.5278 92.9167 84.5833C94.8611 82.6389 97.2222 81.6667 100 81.6667H136.667V135H100C99.0556 135 98.2639 135.319 97.625 135.958C96.9861 136.597 96.6667 137.389 96.6667 138.333C96.6667 139.278 96.9861 140.069 97.625 140.708C98.2639 141.347 99.0556 141.667 100 141.667H143.333V88.3333H150V148.333H100ZM110 128.333H130V88.3333H110V128.333ZM103.333 128.333V88.3333H100C99.0556 88.3333 98.2639 88.6528 97.625 89.2917C96.9861 89.9306 96.6667 90.7222 96.6667 91.6667V128.917C97.2222 128.75 97.7639 128.611 98.2917 128.5C98.8194 128.389 99.3889 128.333 100 128.333H103.333Z" fill="#756855"/>
</g>
<defs>
<clipPath id="clip0_63_34">
<rect width="240" height="340" fill="white"/>
</clipPath>
</defs>
</svg>
