<svg width="240" height="340" viewBox="0 0 240 340" fill="none" xmlns="http://www.w3.org/2000/svg">
<rect width="240" height="340" rx="16" fill="#CEACC4"/>
<g filter="url(#filter0_d_23_4)">
<path d="M46.3153 197.727V221H42.1335V201.227H31.9517V221H27.7699V197.727H46.3153ZM58.7898 221.341C57.0473 221.341 55.5511 220.958 54.3011 220.193C53.0587 219.428 52.1004 218.371 51.4261 217.023C50.7595 215.667 50.4261 214.106 50.4261 212.341C50.4261 210.568 50.767 209.004 51.4489 207.648C52.1307 206.284 53.0928 205.223 54.3352 204.466C55.5852 203.701 57.0625 203.318 58.767 203.318C60.1837 203.318 61.4375 203.58 62.5284 204.102C63.6269 204.617 64.5019 205.348 65.1534 206.295C65.8049 207.235 66.1761 208.333 66.267 209.591H62.3352C62.1761 208.75 61.7973 208.049 61.1989 207.489C60.608 206.92 59.8163 206.636 58.8239 206.636C57.983 206.636 57.2443 206.864 56.608 207.318C55.9716 207.765 55.4754 208.409 55.1193 209.25C54.7708 210.091 54.5966 211.098 54.5966 212.273C54.5966 213.462 54.7708 214.485 55.1193 215.341C55.4678 216.189 55.9564 216.845 56.5852 217.307C57.2216 217.761 57.9678 217.989 58.8239 217.989C59.4299 217.989 59.9716 217.875 60.4489 217.648C60.9337 217.413 61.339 217.076 61.6648 216.636C61.9905 216.197 62.214 215.663 62.3352 215.034H66.267C66.1686 216.269 65.8049 217.364 65.1761 218.318C64.5473 219.265 63.6913 220.008 62.608 220.545C61.5246 221.076 60.2519 221.341 58.7898 221.341ZM73.6108 215.432L80.5994 203.545H84.8267V221H80.8494V209.102L73.8835 221H69.6449V203.545H73.6108V215.432ZM92.4148 203.545L95.9375 209.989L99.517 203.545H103.869L98.608 212.273L103.96 221H99.6307L95.9375 214.716L92.2784 221H87.9148L93.233 212.273L88.0511 203.545H92.4148ZM114.009 221.341C112.304 221.341 110.827 220.966 109.577 220.216C108.327 219.466 107.357 218.417 106.668 217.068C105.986 215.72 105.645 214.144 105.645 212.341C105.645 210.538 105.986 208.958 106.668 207.602C107.357 206.246 108.327 205.193 109.577 204.443C110.827 203.693 112.304 203.318 114.009 203.318C115.713 203.318 117.19 203.693 118.44 204.443C119.69 205.193 120.656 206.246 121.338 207.602C122.027 208.958 122.372 210.538 122.372 212.341C122.372 214.144 122.027 215.72 121.338 217.068C120.656 218.417 119.69 219.466 118.44 220.216C117.19 220.966 115.713 221.341 114.009 221.341ZM114.031 218.045C114.955 218.045 115.728 217.792 116.349 217.284C116.971 216.769 117.433 216.08 117.736 215.216C118.046 214.352 118.202 213.39 118.202 212.33C118.202 211.261 118.046 210.295 117.736 209.432C117.433 208.561 116.971 207.867 116.349 207.352C115.728 206.837 114.955 206.58 114.031 206.58C113.084 206.58 112.296 206.837 111.668 207.352C111.046 207.867 110.58 208.561 110.27 209.432C109.967 210.295 109.815 211.261 109.815 212.33C109.815 213.39 109.967 214.352 110.27 215.216C110.58 216.08 111.046 216.769 111.668 217.284C112.296 217.792 113.084 218.045 114.031 218.045ZM124.659 221L124.636 217.614H125.239C125.693 217.614 126.076 217.511 126.386 217.307C126.697 217.102 126.955 216.761 127.159 216.284C127.364 215.799 127.523 215.148 127.636 214.33C127.75 213.511 127.83 212.492 127.875 211.273L128.182 203.545H140.909V221H136.932V206.92H131.92L131.648 212.545C131.58 214 131.417 215.261 131.159 216.33C130.909 217.39 130.553 218.265 130.091 218.955C129.636 219.644 129.064 220.159 128.375 220.5C127.686 220.833 126.871 221 125.932 221H124.659ZM152.665 221.341C150.96 221.341 149.483 220.966 148.233 220.216C146.983 219.466 146.013 218.417 145.324 217.068C144.642 215.72 144.301 214.144 144.301 212.341C144.301 210.538 144.642 208.958 145.324 207.602C146.013 206.246 146.983 205.193 148.233 204.443C149.483 203.693 150.96 203.318 152.665 203.318C154.369 203.318 155.847 203.693 157.097 204.443C158.347 205.193 159.313 206.246 159.994 207.602C160.684 208.958 161.028 210.538 161.028 212.341C161.028 214.144 160.684 215.72 159.994 217.068C159.313 218.417 158.347 219.466 157.097 220.216C155.847 220.966 154.369 221.341 152.665 221.341ZM152.688 218.045C153.612 218.045 154.384 217.792 155.006 217.284C155.627 216.769 156.089 216.08 156.392 215.216C156.703 214.352 156.858 213.39 156.858 212.33C156.858 211.261 156.703 210.295 156.392 209.432C156.089 208.561 155.627 207.867 155.006 207.352C154.384 206.837 153.612 206.58 152.688 206.58C151.741 206.58 150.953 206.837 150.324 207.352C149.703 207.867 149.237 208.561 148.926 209.432C148.623 210.295 148.472 211.261 148.472 212.33C148.472 213.39 148.623 214.352 148.926 215.216C149.237 216.08 149.703 216.769 150.324 217.284C150.953 217.792 151.741 218.045 152.688 218.045ZM176.065 203.545V206.92H168.543V221H164.52V203.545H176.065ZM183.33 215.432L190.318 203.545H194.545V221H190.568V209.102L183.602 221H179.364V203.545H183.33V215.432ZM209.088 221V206.886H205.361C204.414 206.886 203.687 207.106 203.179 207.545C202.671 207.985 202.421 208.53 202.429 209.182C202.421 209.833 202.66 210.371 203.145 210.795C203.63 211.22 204.323 211.432 205.224 211.432H210.384V214.432H205.224C203.83 214.432 202.626 214.212 201.611 213.773C200.596 213.333 199.815 212.712 199.27 211.909C198.724 211.106 198.452 210.167 198.452 209.091C198.452 207.97 198.728 206.996 199.281 206.17C199.842 205.337 200.637 204.693 201.668 204.239C202.705 203.777 203.937 203.545 205.361 203.545H212.94V221H209.088ZM197.815 221L202.69 212.045H206.747L201.861 221H197.815Z" fill="#724C9D"/>
</g>
<path d="M112.5 145C109.667 145 107.222 144.014 105.167 142.042C103.111 140.069 101.944 137.694 101.667 134.917C98.3333 134.472 95.5556 133 93.3333 130.5C91.1111 128 90 125.056 90 121.667C90 120.5 90.1528 119.347 90.4583 118.208C90.7639 117.069 91.2222 116 91.8333 115C91.2222 114 90.7639 112.944 90.4583 111.833C90.1528 110.722 90 109.556 90 108.333C90 104.944 91.1111 102.014 93.3333 99.5417C95.5556 97.0694 98.3056 95.6111 101.583 95.1667C101.75 92.3333 102.889 89.9306 105 87.9583C107.111 85.9861 109.611 85 112.5 85C113.944 85 115.292 85.2778 116.542 85.8333C117.792 86.3889 118.944 87.1389 120 88.0833C121 87.1389 122.139 86.3889 123.417 85.8333C124.694 85.2778 126.056 85 127.5 85C130.389 85 132.875 85.9722 134.958 87.9167C137.042 89.8611 138.167 92.25 138.333 95.0833C141.611 95.5278 144.375 97 146.625 99.5C148.875 102 150 104.944 150 108.333C150 109.556 149.847 110.722 149.542 111.833C149.236 112.944 148.778 114 148.167 115C148.778 116 149.236 117.069 149.542 118.208C149.847 119.347 150 120.5 150 121.667C150 125.111 148.875 128.069 146.625 130.542C144.375 133.014 141.583 134.472 138.25 134.917C137.972 137.694 136.819 140.069 134.792 142.042C132.764 144.014 130.333 145 127.5 145C126.111 145 124.764 144.736 123.458 144.208C122.153 143.681 121 142.944 120 142C118.944 142.944 117.778 143.681 116.5 144.208C115.222 144.736 113.889 145 112.5 145ZM123.333 95.8333V134.167C123.333 135.333 123.736 136.319 124.542 137.125C125.347 137.931 126.333 138.333 127.5 138.333C128.611 138.333 129.569 137.889 130.375 137C131.181 136.111 131.611 135.111 131.667 134C130.5 133.556 129.431 132.958 128.458 132.208C127.486 131.458 126.611 130.556 125.833 129.5C125.278 128.722 125.069 127.889 125.208 127C125.347 126.111 125.806 125.389 126.583 124.833C127.361 124.278 128.194 124.069 129.083 124.208C129.972 124.347 130.694 124.806 131.25 125.583C131.861 126.472 132.639 127.153 133.583 127.625C134.528 128.097 135.556 128.333 136.667 128.333C138.5 128.333 140.069 127.681 141.375 126.375C142.681 125.069 143.333 123.5 143.333 121.667C143.333 121.389 143.319 121.111 143.292 120.833C143.264 120.556 143.194 120.278 143.083 120C142.139 120.556 141.125 120.972 140.042 121.25C138.958 121.528 137.833 121.667 136.667 121.667C135.722 121.667 134.931 121.347 134.292 120.708C133.653 120.069 133.333 119.278 133.333 118.333C133.333 117.389 133.653 116.597 134.292 115.958C134.931 115.319 135.722 115 136.667 115C138.5 115 140.069 114.347 141.375 113.042C142.681 111.736 143.333 110.167 143.333 108.333C143.333 106.5 142.681 104.944 141.375 103.667C140.069 102.389 138.5 101.722 136.667 101.667C136.056 102.667 135.264 103.542 134.292 104.292C133.319 105.042 132.25 105.639 131.083 106.083C130.194 106.417 129.333 106.389 128.5 106C127.667 105.611 127.111 104.972 126.833 104.083C126.556 103.194 126.597 102.333 126.958 101.5C127.319 100.667 127.944 100.111 128.833 99.8333C129.667 99.5556 130.347 99.0556 130.875 98.3333C131.403 97.6111 131.667 96.7778 131.667 95.8333C131.667 94.6667 131.264 93.6806 130.458 92.875C129.653 92.0694 128.667 91.6667 127.5 91.6667C126.333 91.6667 125.347 92.0694 124.542 92.875C123.736 93.6806 123.333 94.6667 123.333 95.8333ZM116.667 134.167V95.8333C116.667 94.6667 116.264 93.6806 115.458 92.875C114.653 92.0694 113.667 91.6667 112.5 91.6667C111.333 91.6667 110.347 92.0694 109.542 92.875C108.736 93.6806 108.333 94.6667 108.333 95.8333C108.333 96.7222 108.583 97.5417 109.083 98.2917C109.583 99.0417 110.25 99.5556 111.083 99.8333C111.972 100.111 112.611 100.667 113 101.5C113.389 102.333 113.444 103.194 113.167 104.083C112.833 104.972 112.25 105.611 111.417 106C110.583 106.389 109.722 106.417 108.833 106.083C107.667 105.639 106.597 105.042 105.625 104.292C104.653 103.542 103.861 102.667 103.25 101.667C101.472 101.722 99.9306 102.403 98.625 103.708C97.3194 105.014 96.6667 106.556 96.6667 108.333C96.6667 110.167 97.3194 111.736 98.625 113.042C99.9306 114.347 101.5 115 103.333 115C104.278 115 105.069 115.319 105.708 115.958C106.347 116.597 106.667 117.389 106.667 118.333C106.667 119.278 106.347 120.069 105.708 120.708C105.069 121.347 104.278 121.667 103.333 121.667C102.167 121.667 101.042 121.528 99.9583 121.25C98.875 120.972 97.8611 120.556 96.9167 120C96.8056 120.278 96.7361 120.556 96.7083 120.833C96.6806 121.111 96.6667 121.389 96.6667 121.667C96.6667 123.5 97.3194 125.069 98.625 126.375C99.9306 127.681 101.5 128.333 103.333 128.333C104.444 128.333 105.472 128.097 106.417 127.625C107.361 127.153 108.139 126.472 108.75 125.583C109.306 124.806 110.028 124.347 110.917 124.208C111.806 124.069 112.639 124.278 113.417 124.833C114.194 125.389 114.653 126.111 114.792 127C114.931 127.889 114.722 128.722 114.167 129.5C113.389 130.556 112.5 131.472 111.5 132.25C110.5 133.028 109.417 133.639 108.25 134.083C108.306 135.194 108.75 136.181 109.583 137.042C110.417 137.903 111.389 138.333 112.5 138.333C113.667 138.333 114.653 137.931 115.458 137.125C116.264 136.319 116.667 135.333 116.667 134.167Z" fill="#724C9D"/>
<defs>
<filter id="filter0_d_23_4" x="23.7699" y="197.727" width="193.17" height="31.6136" filterUnits="userSpaceOnUse" color-interpolation-filters="sRGB">
<feFlood flood-opacity="0" result="BackgroundImageFix"/>
<feColorMatrix in="SourceAlpha" type="matrix" values="0 0 0 0 0 0 0 0 0 0 0 0 0 0 0 0 0 0 127 0" result="hardAlpha"/>
<feOffset dy="4"/>
<feGaussianBlur stdDeviation="2"/>
<feComposite in2="hardAlpha" operator="out"/>
<feColorMatrix type="matrix" values="0 0 0 0 0 0 0 0 0 0 0 0 0 0 0 0 0 0 0.15 0"/>
<feBlend mode="normal" in2="BackgroundImageFix" result="effect1_dropShadow_23_4"/>
<feBlend mode="normal" in="SourceGraphic" in2="effect1_dropShadow_23_4" result="shape"/>
</filter>
</defs>
</svg>
