<svg width="240" height="340" viewBox="0 0 240 340" fill="none" xmlns="http://www.w3.org/2000/svg">
<rect width="240" height="340" rx="16" fill="#58BBDE"/>
<g filter="url(#filter0_d_23_4)">
<path d="M73.9986 221V197.727H78.2145V207.58H88.9986V197.727H93.2259V221H88.9986V211.114H78.2145V221H73.9986ZM102.652 221.352C101.546 221.352 100.55 221.155 99.6634 220.761C98.7846 220.36 98.0876 219.769 97.5724 218.989C97.0649 218.208 96.8111 217.246 96.8111 216.102C96.8111 215.117 96.9929 214.303 97.3565 213.659C97.7202 213.015 98.2164 212.5 98.8452 212.114C99.474 211.727 100.182 211.436 100.97 211.239C101.766 211.034 102.588 210.886 103.436 210.795C104.459 210.689 105.288 210.595 105.925 210.511C106.561 210.42 107.023 210.284 107.311 210.102C107.607 209.913 107.754 209.621 107.754 209.227V209.159C107.754 208.303 107.5 207.64 106.993 207.17C106.485 206.701 105.754 206.466 104.8 206.466C103.792 206.466 102.993 206.686 102.402 207.125C101.819 207.564 101.425 208.083 101.22 208.682L97.3793 208.136C97.6823 207.076 98.1823 206.189 98.8793 205.477C99.5762 204.758 100.429 204.22 101.436 203.864C102.444 203.5 103.557 203.318 104.777 203.318C105.618 203.318 106.455 203.417 107.288 203.614C108.122 203.811 108.883 204.136 109.572 204.591C110.262 205.038 110.815 205.648 111.232 206.42C111.656 207.193 111.868 208.159 111.868 209.318V221H107.913V218.602H107.777C107.527 219.087 107.175 219.542 106.72 219.966C106.273 220.383 105.709 220.72 105.027 220.977C104.353 221.227 103.561 221.352 102.652 221.352ZM103.72 218.33C104.546 218.33 105.262 218.167 105.868 217.841C106.474 217.508 106.94 217.068 107.266 216.523C107.599 215.977 107.766 215.383 107.766 214.739V212.682C107.637 212.788 107.417 212.886 107.107 212.977C106.804 213.068 106.463 213.148 106.084 213.216C105.705 213.284 105.33 213.345 104.959 213.398C104.588 213.451 104.266 213.496 103.993 213.534C103.379 213.617 102.83 213.754 102.345 213.943C101.86 214.133 101.478 214.398 101.197 214.739C100.917 215.072 100.777 215.504 100.777 216.034C100.777 216.792 101.054 217.364 101.607 217.75C102.16 218.136 102.864 218.33 103.72 218.33ZM117.936 227.545C117.375 227.545 116.857 227.5 116.379 227.409C115.91 227.326 115.535 227.227 115.254 227.114L116.209 223.909C116.807 224.083 117.341 224.167 117.811 224.159C118.281 224.152 118.694 224.004 119.05 223.716C119.413 223.436 119.72 222.966 119.97 222.307L120.322 221.364L113.993 203.545H118.357L122.379 216.727H122.561L126.595 203.545H130.97L123.982 223.114C123.656 224.038 123.224 224.83 122.686 225.489C122.148 226.155 121.489 226.663 120.709 227.011C119.936 227.367 119.012 227.545 117.936 227.545ZM133.817 221V203.545H137.93V210.591H139.43L144.68 203.545H149.635L143.169 212.114L149.703 221H144.726L139.942 214.42H137.93V221H133.817ZM157.058 221.352C155.952 221.352 154.956 221.155 154.07 220.761C153.191 220.36 152.494 219.769 151.979 218.989C151.471 218.208 151.217 217.246 151.217 216.102C151.217 215.117 151.399 214.303 151.763 213.659C152.126 213.015 152.623 212.5 153.251 212.114C153.88 211.727 154.589 211.436 155.376 211.239C156.172 211.034 156.994 210.886 157.842 210.795C158.865 210.689 159.695 210.595 160.331 210.511C160.967 210.42 161.429 210.284 161.717 210.102C162.013 209.913 162.161 209.621 162.161 209.227V209.159C162.161 208.303 161.907 207.64 161.399 207.17C160.892 206.701 160.161 206.466 159.206 206.466C158.198 206.466 157.399 206.686 156.808 207.125C156.225 207.564 155.831 208.083 155.626 208.682L151.786 208.136C152.089 207.076 152.589 206.189 153.286 205.477C153.982 204.758 154.835 204.22 155.842 203.864C156.85 203.5 157.964 203.318 159.183 203.318C160.024 203.318 160.861 203.417 161.695 203.614C162.528 203.811 163.289 204.136 163.979 204.591C164.668 205.038 165.221 205.648 165.638 206.42C166.062 207.193 166.274 208.159 166.274 209.318V221H162.32V218.602H162.183C161.933 219.087 161.581 219.542 161.126 219.966C160.679 220.383 160.115 220.72 159.433 220.977C158.759 221.227 157.967 221.352 157.058 221.352ZM158.126 218.33C158.952 218.33 159.668 218.167 160.274 217.841C160.88 217.508 161.346 217.068 161.672 216.523C162.005 215.977 162.172 215.383 162.172 214.739V212.682C162.043 212.788 161.823 212.886 161.513 212.977C161.21 213.068 160.869 213.148 160.49 213.216C160.111 213.284 159.736 213.345 159.365 213.398C158.994 213.451 158.672 213.496 158.399 213.534C157.786 213.617 157.236 213.754 156.751 213.943C156.267 214.133 155.884 214.398 155.604 214.739C155.323 215.072 155.183 215.504 155.183 216.034C155.183 216.792 155.46 217.364 156.013 217.75C156.566 218.136 157.27 218.33 158.126 218.33Z" fill="#003664"/>
</g>
<path d="M96.6667 145V138.333H113.333V131.667C108.722 131.667 104.792 130.042 101.542 126.792C98.2917 123.542 96.6667 119.611 96.6667 115C96.6667 111.611 97.5972 108.528 99.4583 105.75C101.319 102.972 103.833 100.944 107 99.6667C107.444 97.7778 108.431 96.25 109.958 95.0833C111.486 93.9167 113.222 93.3333 115.167 93.3333L113.333 88.1667L116.5 87L115.333 84L121.667 81.6667L122.667 84.8333L125.833 83.6667L135 108.667L131.833 109.833L133 113L126.667 115.333L125.667 112.167L122.5 113.333L120.5 107.833C119.667 108.611 118.708 109.194 117.625 109.583C116.542 109.972 115.444 110.111 114.333 110C113.111 109.889 111.972 109.514 110.917 108.875C109.861 108.236 108.944 107.444 108.167 106.5C106.667 107.389 105.486 108.583 104.625 110.083C103.764 111.583 103.333 113.222 103.333 115C103.333 117.778 104.306 120.139 106.25 122.083C108.194 124.028 110.556 125 113.333 125H140V131.667H123.333V138.333H143.333V145H96.6667ZM125.5 106.833L128.5 105.667L122.833 90L119.667 91.1667L125.5 106.833ZM115 105C115.944 105 116.736 104.681 117.375 104.042C118.014 103.403 118.333 102.611 118.333 101.667C118.333 100.722 118.014 99.9306 117.375 99.2917C116.736 98.6528 115.944 98.3333 115 98.3333C114.056 98.3333 113.264 98.6528 112.625 99.2917C111.986 99.9306 111.667 100.722 111.667 101.667C111.667 102.611 111.986 103.403 112.625 104.042C113.264 104.681 114.056 105 115 105Z" fill="#003664"/>
<defs>
<filter id="filter0_d_23_4" x="69.9986" y="197.727" width="100.276" height="37.8182" filterUnits="userSpaceOnUse" color-interpolation-filters="sRGB">
<feFlood flood-opacity="0" result="BackgroundImageFix"/>
<feColorMatrix in="SourceAlpha" type="matrix" values="0 0 0 0 0 0 0 0 0 0 0 0 0 0 0 0 0 0 127 0" result="hardAlpha"/>
<feOffset dy="4"/>
<feGaussianBlur stdDeviation="2"/>
<feComposite in2="hardAlpha" operator="out"/>
<feColorMatrix type="matrix" values="0 0 0 0 0 0 0 0 0 0 0 0 0 0 0 0 0 0 0.15 0"/>
<feBlend mode="normal" in2="BackgroundImageFix" result="effect1_dropShadow_23_4"/>
<feBlend mode="normal" in="SourceGraphic" in2="effect1_dropShadow_23_4" result="shape"/>
</filter>
</defs>
</svg>
