<svg width="240" height="340" viewBox="0 0 240 340" fill="none" xmlns="http://www.w3.org/2000/svg">
<g clip-path="url(#clip0_63_34)">
<path d="M224 0H16C7.16344 0 0 7.16344 0 16V324C0 332.837 7.16344 340 16 340H224C232.837 340 240 332.837 240 324V16C240 7.16344 232.837 0 224 0Z" fill="#FCEEC7"/>
<path d="M27.8665 204.261V200.727H46.4347V204.261H39.2415V224H35.0597V204.261H27.8665ZM55.0284 224.341C53.2784 224.341 51.767 223.977 50.4943 223.25C49.2292 222.515 48.2557 221.477 47.5739 220.136C46.892 218.788 46.5511 217.201 46.5511 215.375C46.5511 213.58 46.892 212.004 47.5739 210.648C48.2633 209.284 49.2254 208.223 50.4602 207.466C51.6951 206.701 53.1458 206.318 54.8125 206.318C55.8883 206.318 56.9034 206.492 57.858 206.841C58.8201 207.182 59.6686 207.712 60.4034 208.432C61.1458 209.152 61.7292 210.068 62.1534 211.182C62.5777 212.288 62.7898 213.606 62.7898 215.136V216.398H48.483V213.625H58.8466C58.839 212.837 58.6686 212.136 58.3352 211.523C58.0019 210.902 57.536 210.413 56.9375 210.057C56.3466 209.701 55.6572 209.523 54.8693 209.523C54.0284 209.523 53.2898 209.727 52.6534 210.136C52.017 210.538 51.5208 211.068 51.1648 211.727C50.8163 212.379 50.6383 213.095 50.6307 213.875V216.295C50.6307 217.311 50.8163 218.182 51.1875 218.909C51.5587 219.629 52.0777 220.182 52.7443 220.568C53.411 220.947 54.1913 221.136 55.0852 221.136C55.6837 221.136 56.2254 221.053 56.7102 220.886C57.1951 220.712 57.6155 220.458 57.9716 220.125C58.3277 219.792 58.5966 219.379 58.7784 218.886L62.6193 219.318C62.3769 220.333 61.9148 221.22 61.233 221.977C60.5587 222.727 59.6951 223.311 58.642 223.727C57.589 224.136 56.3845 224.341 55.0284 224.341ZM69.2585 206.545L72.7812 212.989L76.3608 206.545H80.7131L75.4517 215.273L80.804 224H76.4744L72.7812 217.716L69.1222 224H64.7585L70.0767 215.273L64.8949 206.545H69.2585ZM95.8835 213.568V216.943H86.5881V213.568H95.8835ZM87.8608 206.545V224H83.8949V206.545H87.8608ZM98.5767 206.545V224H94.6222V206.545H98.5767ZM110.352 224.341C108.648 224.341 107.17 223.966 105.92 223.216C104.67 222.466 103.701 221.417 103.011 220.068C102.33 218.72 101.989 217.144 101.989 215.341C101.989 213.538 102.33 211.958 103.011 210.602C103.701 209.246 104.67 208.193 105.92 207.443C107.17 206.693 108.648 206.318 110.352 206.318C112.057 206.318 113.534 206.693 114.784 207.443C116.034 208.193 117 209.246 117.682 210.602C118.371 211.958 118.716 213.538 118.716 215.341C118.716 217.144 118.371 218.72 117.682 220.068C117 221.417 116.034 222.466 114.784 223.216C113.534 223.966 112.057 224.341 110.352 224.341ZM110.375 221.045C111.299 221.045 112.072 220.792 112.693 220.284C113.314 219.769 113.777 219.08 114.08 218.216C114.39 217.352 114.545 216.39 114.545 215.33C114.545 214.261 114.39 213.295 114.08 212.432C113.777 211.561 113.314 210.867 112.693 210.352C112.072 209.837 111.299 209.58 110.375 209.58C109.428 209.58 108.64 209.837 108.011 210.352C107.39 210.867 106.924 211.561 106.614 212.432C106.311 213.295 106.159 214.261 106.159 215.33C106.159 216.39 106.311 217.352 106.614 218.216C106.924 219.08 107.39 219.769 108.011 220.284C108.64 220.792 109.428 221.045 110.375 221.045ZM121.003 224L120.98 220.614H121.582C122.037 220.614 122.42 220.511 122.73 220.307C123.041 220.102 123.298 219.761 123.503 219.284C123.707 218.799 123.866 218.148 123.98 217.33C124.094 216.511 124.173 215.492 124.219 214.273L124.526 206.545H137.253V224H133.276V209.92H128.264L127.991 215.545C127.923 217 127.76 218.261 127.503 219.33C127.253 220.39 126.897 221.265 126.435 221.955C125.98 222.644 125.408 223.159 124.719 223.5C124.029 223.833 123.215 224 122.276 224H121.003ZM149.009 224.341C147.304 224.341 145.827 223.966 144.577 223.216C143.327 222.466 142.357 221.417 141.668 220.068C140.986 218.72 140.645 217.144 140.645 215.341C140.645 213.538 140.986 211.958 141.668 210.602C142.357 209.246 143.327 208.193 144.577 207.443C145.827 206.693 147.304 206.318 149.009 206.318C150.713 206.318 152.19 206.693 153.44 207.443C154.69 208.193 155.656 209.246 156.338 210.602C157.027 211.958 157.372 213.538 157.372 215.341C157.372 217.144 157.027 218.72 156.338 220.068C155.656 221.417 154.69 222.466 153.44 223.216C152.19 223.966 150.713 224.341 149.009 224.341ZM149.031 221.045C149.955 221.045 150.728 220.792 151.349 220.284C151.971 219.769 152.433 219.08 152.736 218.216C153.046 217.352 153.202 216.39 153.202 215.33C153.202 214.261 153.046 213.295 152.736 212.432C152.433 211.561 151.971 210.867 151.349 210.352C150.728 209.837 149.955 209.58 149.031 209.58C148.084 209.58 147.296 209.837 146.668 210.352C146.046 210.867 145.58 211.561 145.27 212.432C144.967 213.295 144.815 214.261 144.815 215.33C144.815 216.39 144.967 217.352 145.27 218.216C145.58 219.08 146.046 219.769 146.668 220.284C147.296 220.792 148.084 221.045 149.031 221.045ZM172.409 206.545V209.92H164.886V224H160.864V206.545H172.409ZM179.673 218.432L186.662 206.545H190.889V224H186.912V212.102L179.946 224H175.707V206.545H179.673V218.432ZM199.08 218.432L206.068 206.545H210.295V224H206.318V212.102L199.352 224H195.114V206.545H199.08V218.432Z" fill="#259086"/>
<path d="M106.667 145V138.333H113.333V131.667H93.3333C91.5 131.667 89.9306 131.014 88.625 129.708C87.3194 128.403 86.6667 126.833 86.6667 125V91.6667C86.6667 89.8333 87.3194 88.2639 88.625 86.9583C89.9306 85.6528 91.5 85 93.3333 85H146.667C148.5 85 150.069 85.6528 151.375 86.9583C152.681 88.2639 153.333 89.8333 153.333 91.6667V125C153.333 126.833 152.681 128.403 151.375 129.708C150.069 131.014 148.5 131.667 146.667 131.667H126.667V138.333H133.333V145H106.667ZM93.3333 125H146.667V91.6667H93.3333V125Z" fill="#259086"/>
</g>
<defs>
<clipPath id="clip0_63_34">
<rect width="240" height="340" fill="white"/>
</clipPath>
</defs>
</svg>
